<svg width="16" height="15" viewBox="0 0 16 15" fill="none" xmlns="http://www.w3.org/2000/svg">
<path d="M5.44475 1.84077C5.59939 1.43482 5.81204 1.06108 6.12778 0.758232C7.39074 -0.47251 9.47849 -0.163214 10.3355 1.38327C10.9799 2.55602 11.6629 3.70299 12.3266 4.86285C13.4349 6.78951 14.5561 8.71617 15.6515 10.6493C16.573 12.2666 15.5742 14.3093 13.7442 14.5864C12.623 14.7539 11.5727 14.2384 10.9927 13.2332C10.0198 11.5385 9.04032 9.84381 8.06732 8.15557C8.04799 8.11691 8.02222 8.08469 7.99644 8.05247C7.89334 7.9687 7.84824 7.84627 7.7838 7.73673C7.35207 6.97638 6.90746 6.22247 6.47573 5.46856C6.19866 4.97884 5.90869 4.49556 5.63161 4.00584C5.38031 3.56767 5.26432 3.09084 5.27721 2.58824C5.29654 2.33049 5.32876 2.07274 5.44475 1.84077Z" fill="#3C8BD9"/>
<path d="M5.44531 1.8418C5.38732 2.07377 5.33577 2.30574 5.32288 2.5506C5.30355 3.09187 5.43887 3.59448 5.7095 4.06486C6.41831 5.28272 7.12711 6.50702 7.82947 7.73131C7.89391 7.84086 7.94546 7.9504 8.00989 8.0535C7.62327 8.72364 7.23665 9.38734 6.84359 10.0575C6.30232 10.9918 5.76105 11.9326 5.21334 12.8669C5.18757 12.8669 5.18112 12.854 5.17468 12.8347C5.16823 12.7832 5.18757 12.738 5.20045 12.6865C5.46464 11.7199 5.24556 10.8629 4.58186 10.1284C4.17591 9.68375 3.66041 9.43244 3.0676 9.34868C2.29436 9.23913 1.61133 9.43889 0.999177 9.92216C0.889635 10.0059 0.818755 10.1284 0.689881 10.1928C0.664106 10.1928 0.651219 10.1799 0.644775 10.1606C0.954072 9.62575 1.25692 9.09093 1.56622 8.5561C2.84207 6.33948 4.11792 4.12286 5.40021 1.91268C5.41309 1.8869 5.43243 1.86757 5.44531 1.8418Z" fill="#FABC04"/>
<path d="M0.669999 10.1795C0.792429 10.07 0.908415 9.95398 1.03729 9.85088C2.6031 8.61369 4.95504 9.50936 5.29656 11.4682C5.38032 11.9386 5.33522 12.3897 5.19346 12.8407C5.18701 12.8794 5.18057 12.9116 5.16768 12.9503C5.10969 13.0534 5.05814 13.1629 4.9937 13.266C4.42022 14.2132 3.5761 14.6836 2.46778 14.6128C1.19838 14.5225 0.199611 13.5689 0.025632 12.3059C-0.0581357 11.6938 0.0642941 11.1203 0.380034 10.5919C0.444471 10.4759 0.521795 10.3728 0.592675 10.2568C0.624894 10.2311 0.612006 10.1795 0.669999 10.1795Z" fill="#34A852"/>
<path d="M0.670026 10.1781C0.644252 10.2039 0.644252 10.249 0.599146 10.2554C0.592702 10.2103 0.618477 10.1846 0.644252 10.1523L0.670026 10.1781Z" fill="#FABC04"/>
<path d="M5.16693 12.9494C5.14115 12.9043 5.16693 12.8721 5.1927 12.8398C5.19914 12.8463 5.21203 12.8592 5.21848 12.8656L5.16693 12.9494Z" fill="#E1C025"/>
</svg>
